<svg width="12" height="8" viewBox="0 0 12 8" fill="none" xmlns="http://www.w3.org/2000/svg">
<path d="M5.29361 1.17006L1.05361 5.41006C0.959882 5.50302 0.885488 5.61362 0.834719 5.73548C0.783951 5.85734 0.757812 5.98805 0.757812 6.12006C0.757812 6.25207 0.783951 6.38277 0.834719 6.50463C0.885488 6.62649 0.959882 6.73709 1.05361 6.83006C1.24097 7.01631 1.49442 7.12085 1.75861 7.12085C2.0228 7.12085 2.27625 7.01631 2.46361 6.83006L6.00361 3.29006L9.54361 6.83006C9.73097 7.01631 9.98443 7.12085 10.2486 7.12085C10.5128 7.12085 10.7662 7.01631 10.9536 6.83006C11.0463 6.73662 11.1196 6.6258 11.1694 6.50396C11.2191 6.38213 11.2444 6.25166 11.2436 6.12006C11.2444 5.98845 11.2191 5.85799 11.1694 5.73615C11.1196 5.61431 11.0463 5.5035 10.9536 5.41006L6.71361 1.17006C6.62065 1.07633 6.51005 1.00194 6.38819 0.951166C6.26633 0.900397 6.13562 0.874259 6.00361 0.874259C5.8716 0.874259 5.74089 0.900397 5.61903 0.951166C5.49717 1.00194 5.38657 1.07633 5.29361 1.17006Z" fill="#2D2D2D"/>
</svg>
